# xmcd
#
# Track frame offsets: 
#        150
#        3347
#        17700
#        19985
#        33040
#        47085
#        59537
#        72262
#        86720
#        100135
#        113562
#        126402
#        139002
#        150024
#        162200
#        176067
#        189062
#        200947
#        214742
#        228272
#        240100
#        251812
#        264397
#        275960
#        287015
#        298420
#        311597
#        325532
#        337547
#
# Disc length: 4674 seconds
#
# Revision: 6
# Processed by: cddbd v1.5.2PL0 Copyright (c) Steve Scherf et al.
# Submitted via: ExactAudioCopy v1.1
#
DISCID=9412401d
DTITLE=Various Artist - Roots n' Blues: - The Retrospective, 1925-195
DTITLE=0  - Disc 3
DYEAR=1992
DGENRE=Blues
TTITLE0=W. Lee O'Daniel and His Light Crust Doughboys - Doughboys Theme 
TTITLE0=Song #1 (mono)
TTITLE1=W. Lee O'Daniel and His Hillbilly Boys - Ida (Sweet As Apple Cid
TTITLE1=er) (mono)
TTITLE2=W. Lee O'Daniel and His Light Crust Doughboys - Doughboys Theme 
TTITLE2=Song #2 (mono)
TTITLE3=Blind Willie (McTell) and Partner - Bell Street Lightnin' (mono)
TTITLE4=Charlie Patton - Jersey Bull Blues (mono)
TTITLE5=Walter Roland - Every Morning Blues (mono)
TTITLE6=The Blue Ridge Ramblers (Prairie Ramblers) - D Blues (mono)
TTITLE7=Breaux Freresa - La Valse des Yeux Bleu (Blue Eyes Waltz) (mon
TTITLE7=o)
TTITLE8=Lucille Bogan (Bessie Jackson) - Skin Game Blues (mono)
TTITLE9=Leroy Carr with Scrapper Blackwell - Good Woman Blues (mono)
TTITLE10=Josh White (Pinewood Tom) - Sissy Man (mono)
TTITLE11=The Rhythm Wreckers - Blue Yodel #2 (My Lovin' Gal Lucille) (
TTITLE11=mono)
TTITLE12=The Anglin Twins (Jack and Jim) - Just Inside The Pearly Gate
TTITLE12=s (mono)
TTITLE13=Bumble Bee Slim (Amos Easton) - Hard Rocks In My Bed (mono)
TTITLE14=The Two Charles - Tired Feelin' Blues (mono)
TTITLE15=Eidon Baker and His Brown County Revellers - One Eyed Sam (mono
TTITLE15=)
TTITLE16=A'nt Idy Harper and The Coon Creek Girls - Poor Naomi Wise (mon
TTITLE16=o)
TTITLE17=(Kid) Prince Moore - South Bound Blues (mono)
TTITLE18=Big Bill Broonzy - C and A Blues (mono)
TTITLE19=George Curry - My Last Five Dollars (mono)
TTITLE20=The Nite Owls - Memphis Blues (mono)
TTITLE21=The Alley Boys Of Abbeville - Pourquoi Tu M'Aime Pas (mono)
TTITLE22=Reverend Benny Campbell (Meetin' House in Dixie) - Have Mercy
TTITLE22=On Me (mono)
TTITLE23=Albert Ammons - Shout For Joy (mono)
TTITLE24=Jack Kelly - Flower Blues (mono)
TTITLE25=Cliff Carlisle (Bob Clifford) - Onion Eating Mama (mono)
TTITLE26=The Callahan Brothers - Brown's Ferry Blues #2 (mono)
TTITLE27=Little Buddy Doyle - Slick Capers Blues (mono)
TTITLE28=Bill Jazz Gillum (Bill McKinley) - Poor Boy Blues (mono)
EXTD=
EXTT0=
EXTT1=
EXTT2=
EXTT3=
EXTT4=
EXTT5=
EXTT6=
EXTT7=
EXTT8=
EXTT9=
EXTT10=
EXTT11=
EXTT12=
EXTT13=
EXTT14=
EXTT15=
EXTT16=
EXTT17=
EXTT18=
EXTT19=
EXTT20=
EXTT21=
EXTT22=
EXTT23=
EXTT24=
EXTT25=
EXTT26=
EXTT27=
EXTT28=
PLAYORDER=
